<svg width="420" height="286" viewBox="0 0 420 286" fill="none" xmlns="http://www.w3.org/2000/svg">
<g style="mix-blend-mode:difference" opacity="0.9">
<path d="M182.844 170.029C182.844 120.179 147.053 108.2 105.038 108.2C80.1401 108.2 56.4093 119.407 42.0152 133.704L53.2971 73.4215H178.954L206.186 0H198.405C179.732 19.3215 164.17 23.1857 135.771 23.1857H42.7933L18.2844 156.117L31.5114 158.436C46.6835 141.433 70.0253 127.522 93.3671 127.522C117.487 127.522 126.435 138.728 127.213 166.551C126.824 250.792 5.44641 284.025 0 285.957C4.27933 285.571 182.844 268.955 182.844 170.029Z" fill="white"/>
<path d="M213.814 173.893C213.814 235.335 245.715 285.957 318.852 285.957C372.538 285.957 420 253.111 420 189.35C420 148.775 393.546 112.064 346.084 112.064C295.121 112.064 274.114 166.551 269.446 181.622C269.835 54.4865 379.152 17.3893 384.598 15.4572C380.708 15.8436 213.814 28.9822 213.814 173.893ZM322.743 158.436C352.698 158.436 373.316 177.757 373.316 208.672C373.316 250.406 351.142 266.636 326.633 266.636C290.842 266.636 269.835 228.766 269.446 183.94C273.336 178.144 290.453 158.436 322.743 158.436Z" fill="white"/>
</g>
</svg>
